<svg width="24" height="24" viewBox="0 0 24 24" fill="none" xmlns="http://www.w3.org/2000/svg">
<g clip-path="url(#clip0_7501_6474)">
<path d="M10.5 10.5V11.25H11.25V10.5H10.5ZM5.5 5.5V6.25C5.91421 6.25 6.25 5.91421 6.25 5.5H5.5ZM13.5 10.5H12.75V11.25H13.5V10.5ZM18.5 5.5H17.75C17.75 5.91421 18.0858 6.25 18.5 6.25V5.5ZM10.5 13.5H11.25V12.75H10.5V13.5ZM5.5 18.5H6.25C6.25 18.0858 5.91421 17.75 5.5 17.75V18.5ZM13.5 13.5V12.75H12.75V13.5H13.5ZM18.5 18.5V17.75C18.0858 17.75 17.75 18.0858 17.75 18.5H18.5ZM10.5 10.5H11.25V4H10.5H9.75V10.5H10.5ZM5.5 4H4.75V5.5H5.5H6.25V4H5.5ZM5.5 5.5V4.75H4V5.5V6.25H5.5V5.5ZM4 10.5V11.25H10.5V10.5V9.75H4V10.5ZM1.5 8H0.75C0.75 9.79493 2.20507 11.25 4 11.25V10.5V9.75C3.0335 9.75 2.25 8.9665 2.25 8H1.5ZM4 5.5V4.75C2.20507 4.75 0.75 6.20507 0.75 8H1.5H2.25C2.25 7.0335 3.0335 6.25 4 6.25V5.5ZM8 1.5V0.75C6.20507 0.75 4.75 2.20507 4.75 4H5.5H6.25C6.25 3.0335 7.0335 2.25 8 2.25V1.5ZM10.5 4H11.25C11.25 2.20507 9.79493 0.75 8 0.75V1.5V2.25C8.9665 2.25 9.75 3.0335 9.75 4H10.5ZM13.5 10.5H14.25V4H13.5H12.75V10.5H13.5ZM18.5 4H17.75V5.5H18.5H19.25V4H18.5ZM18.5 5.5V6.25H20V5.5V4.75H18.5V5.5ZM20 10.5V9.75H13.5V10.5V11.25H20V10.5ZM22.5 8H21.75C21.75 8.9665 20.9665 9.75 20 9.75V10.5V11.25C21.7949 11.25 23.25 9.79493 23.25 8H22.5ZM20 5.5V6.25C20.9665 6.25 21.75 7.0335 21.75 8H22.5H23.25C23.25 6.20507 21.7949 4.75 20 4.75V5.5ZM16 1.5V2.25C16.9665 2.25 17.75 3.0335 17.75 4H18.5H19.25C19.25 2.20507 17.7949 0.75 16 0.75V1.5ZM13.5 4H14.25C14.25 3.0335 15.0335 2.25 16 2.25V1.5V0.75C14.2051 0.75 12.75 2.20507 12.75 4H13.5ZM10.5 13.5H9.75V20H10.5H11.25V13.5H10.5ZM5.5 20H6.25V18.5H5.5H4.75V20H5.5ZM5.5 18.5V17.75H4V18.5V19.25H5.5V18.5ZM4 13.5V14.25H10.5V13.5V12.75H4V13.5ZM1.5 16H2.25C2.25 15.0335 3.0335 14.25 4 14.25V13.5V12.75C2.20507 12.75 0.75 14.2051 0.75 16H1.5ZM4 18.5V17.75C3.0335 17.75 2.25 16.9665 2.25 16H1.5H0.75C0.75 17.7949 2.20507 19.25 4 19.25V18.5ZM8 22.5V21.75C7.0335 21.75 6.25 20.9665 6.25 20H5.5H4.75C4.75 21.7949 6.20507 23.25 8 23.25V22.5ZM10.5 20H9.75C9.75 20.9665 8.9665 21.75 8 21.75V22.5V23.25C9.79493 23.25 11.25 21.7949 11.25 20H10.5ZM13.5 13.5H12.75V20H13.5H14.25V13.5H13.5ZM18.5 20H19.25V18.5H18.5H17.75V20H18.5ZM18.5 18.5V19.25H20V18.5V17.75H18.5V18.5ZM20 13.5V12.75H13.5V13.5V14.25H20V13.5ZM22.5 16H23.25C23.25 14.2051 21.7949 12.75 20 12.75V13.5V14.25C20.9665 14.25 21.75 15.0335 21.75 16H22.5ZM20 18.5V19.25C21.7949 19.25 23.25 17.7949 23.25 16H22.5H21.75C21.75 16.9665 20.9665 17.75 20 17.75V18.5ZM16 22.5V23.25C17.7949 23.25 19.25 21.7949 19.25 20H18.5H17.75C17.75 20.9665 16.9665 21.75 16 21.75V22.5ZM13.5 20H12.75C12.75 21.7949 14.2051 23.25 16 23.25V22.5V21.75C15.0335 21.75 14.25 20.9665 14.25 20H13.5Z" fill="#22292E"/>
</g>
<defs>
<clipPath id="clip0_7501_6474">
<rect width="24" height="24" fill="white"/>
</clipPath>
</defs>
</svg>
