<svg width="24" height="24" viewBox="0 0 24 24" fill="none" xmlns="http://www.w3.org/2000/svg">
<path d="M13.5001 4.83713C13.5001 4.4658 13.8346 4.18243 14.1948 4.27284C14.9043 4.45097 15.5922 4.7153 16.2423 5.06272C17.5475 5.76041 18.6613 6.76965 19.4835 8.00022C20.3056 9.23076 20.8121 10.6456 20.9571 12.1184C21.1021 13.5911 20.8809 15.0773 20.3145 16.4446C19.7482 17.8116 18.8539 19.0185 17.7101 19.9573C16.566 20.8961 15.2075 21.5386 13.756 21.8274C12.3045 22.1161 10.804 22.0421 9.38779 21.6125C8.68235 21.3985 8.00916 21.0985 7.38143 20.7225C7.06287 20.5316 7.02663 20.0947 7.28916 19.8321L9.37589 17.7446C9.56135 17.5591 9.84452 17.5191 10.0868 17.6197C10.6761 17.8645 11.3222 18.0002 12.0001 18.0002C14.7614 18.0002 17 15.7615 17.0001 13.0002C17.0001 10.9167 15.7257 9.13056 13.914 8.37922C13.6719 8.27882 13.5001 8.0504 13.5001 7.78829V4.83713Z" stroke="#22292E" stroke-width="1.5" stroke-linejoin="round"/>
<path d="M6.79032 14.5004C7.05169 14.5004 7.28015 14.6731 7.38153 14.914C7.48299 15.1551 7.44246 15.4359 7.25749 15.6208L4.93464 17.9437C4.68504 18.1933 4.27362 18.1753 4.06548 17.8902C3.47922 17.0871 3.00742 16.1996 2.66344 15.2558C2.52707 14.8816 2.81482 14.5004 3.21304 14.5004H6.79032Z" stroke="#22292E" stroke-width="1.5" stroke-linejoin="round"/>
<path d="M7.25482 10.3764C7.44022 10.5618 7.48094 10.8432 7.38003 11.0852C7.27915 11.3271 7.05015 11.5004 6.78802 11.5004H2.60184C2.27051 11.5004 2.0002 11.2317 2.01805 10.9008C2.08114 9.73151 2.32944 8.5753 2.76073 7.48187C2.80912 7.35921 2.85971 7.23766 2.91242 7.1173C3.07423 6.74781 3.55406 6.67559 3.83928 6.96081L7.25482 10.3764Z" stroke="#22292E" stroke-width="1.5" stroke-linejoin="round"/>
<path d="M10.5 7.78853C10.5 8.05062 10.3267 8.2796 10.0848 8.38045C9.84279 8.48135 9.56129 8.44063 9.37587 8.25521L5.48232 4.36166C5.24897 4.12832 5.24669 3.74886 5.49201 3.52814C5.79372 3.25667 6.11162 3.00339 6.44432 2.76996C7.47306 2.04823 8.61514 1.53789 9.81023 1.25652C10.1694 1.17195 10.5 1.45469 10.5 1.82372V7.78853Z" stroke="#22292E" stroke-width="1.5" stroke-linejoin="round"/>
</svg>
